{"accessors" : [{"bufferView" : 0, "byteOffset" : 0, "componentType" : 5123, "count" : 84, "type" : "SCALAR", "max" : [71], "min" : [0]}, {"bufferView" : 1, "byteOffset" : 0, "componentType" : 5126, "count" : 72, "type" : "VEC3", "max" : [-4.090000152587891, 1.899999976158142, -0], "min" : [-5.090000152587891, 0, -0.6000000238418579], "name" : "POSITION"}, {"bufferView" : 1, "byteOffset" : 12, "componentType" : 5126, "count" : 72, "type" : "VEC3", "max" : [1.0000044107437134, 1.0000044107437134, 1.0000044107437134], "min" : [-1.0000044107437134, -1.0000044107437134, -1.0000044107437134], "name" : "NORMAL"}, {"bufferView" : 1, "byteOffset" : 24, "componentType" : 5126, "count" : 72, "type" : "VEC2", "max" : [23.622047424316406, -0], "min" : [-23.622047424316406, -74.80314636230469], "name" : "TEXCOORD_0"}, {"bufferView" : 0, "byteOffset" : 168, "componentType" : 5123, "count" : 84, "type" : "SCALAR", "max" : [71], "min" : [0]}, {"bufferView" : 2, "byteOffset" : 0, "componentType" : 5126, "count" : 72, "type" : "VEC3", "max" : [-4.090000152587891, 2.5, -0], "min" : [-5.090000152587891, 1.899999976158142, -0.6000000238418579], "name" : "POSITION"}, {"bufferView" : 2, "byteOffset" : 12, "componentType" : 5126, "count" : 72, "type" : "VEC3", "max" : [1.0000044107437134, 1.0000044107437134, 1.0000044107437134], "min" : [-1.0000044107437134, -1.0000044107437134, -1.0000044107437134], "name" : "NORMAL"}, {"bufferView" : 2, "byteOffset" : 24, "componentType" : 5126, "count" : 72, "type" : "VEC2", "max" : [23.622047424316406, -0], "min" : [-23.622047424316406, -23.622047424316406], "name" : "TEXCOORD_0"}], "asset" : {"generator" : "Aspose.3D 22.1", "version" : "2.0"}, "buffers" : [{"uri" : "data:application/octet-stream;base64,", "byteLength" : 5724}], "bufferViews" : [{"buffer" : 0, "byteOffset" : 0, "byteLength" : 336, "target" : 34963}, {"buffer" : 0, "byteOffset" : 340, "byteLength" : 2688, "byteStride" : 32, "target" : 34962}, {"buffer" : 0, "byteOffset" : 3032, "byteLength" : 2688, "byteStride" : 32, "target" : 34962}], "materials" : [{"name" : "", "pbrMetallicRoughness" : {"baseColorFactor" : [1, 1, 1, 1], "metallicFactor" : 0, "roughnessFactor" : 0}, "emissiveFactor" : [0, 0, 0], "alphaMode" : "OPAQUE", "doubleSided" : false}, {"name" : "", "pbrMetallicRoughness" : {"baseColorFactor" : [1, 1, 1, 1], "metallicFactor" : 0, "roughnessFactor" : 0}, "emissiveFactor" : [0, 0, 0], "alphaMode" : "OPAQUE", "doubleSided" : false}], "meshes" : [{"primitives" : [{"attributes" : {"POSITION" : 1, "NORMAL" : 2, "TEXCOORD_0" : 3}, "indices" : 0, "material" : 0, "mode" : 4}], "name" : ""}, {"primitives" : [{"attributes" : {"POSITION" : 5, "NORMAL" : 6, "TEXCOORD_0" : 7}, "indices" : 4, "material" : 1, "mode" : 4}], "name" : ""}], "nodes" : [{"mesh" : 0, "name" : "Mesh1"}, {"children" : [0], "name" : "Group2"}, {"mesh" : 1, "name" : "Mesh2"}, {"children" : [2], "name" : "Group3"}, {"children" : [1, 3], "name" : "Group1"}, {"children" : [4], "name" : "Model"}], "scene" : 0, "scenes" : [{"nodes" : [5]}]}