{"accessors" : [{"bufferView" : 0, "byteOffset" : 0, "componentType" : 5123, "count" : 84, "type" : "SCALAR", "max" : [71], "min" : [0]}, {"bufferView" : 1, "byteOffset" : 0, "componentType" : 5126, "count" : 72, "type" : "VEC3", "max" : [-7.638334409421077E-14, 2.4000000953674316, -0], "min" : [-0.800000011920929, 1.899999976158142, -0.6000000238418579], "name" : "POSITION"}, {"bufferView" : 1, "byteOffset" : 12, "componentType" : 5126, "count" : 72, "type" : "VEC3", "max" : [1.0000044107437134, 1.0000044107437134, 1.0000044107437134], "min" : [-1.0000044107437134, -1.0000044107437134, -1.0000044107437134], "name" : "NORMAL"}, {"bufferView" : 1, "byteOffset" : 24, "componentType" : 5126, "count" : 72, "type" : "VEC2", "max" : [31.496063232421875, -0], "min" : [-31.496063232421875, -31.496063232421875], "name" : "TEXCOORD_0"}, {"bufferView" : 0, "byteOffset" : 168, "componentType" : 5123, "count" : 144, "type" : "SCALAR", "max" : [119], "min" : [0]}, {"bufferView" : 2, "byteOffset" : 0, "componentType" : 5126, "count" : 120, "type" : "VEC3", "max" : [-0.009999999776482582, 1.86370849609375, -0.2800000011920929], "min" : [-0.7900000214576721, 1.8437085151672363, -0.30000001192092896], "name" : "POSITION"}, {"bufferView" : 2, "byteOffset" : 12, "componentType" : 5126, "count" : 120, "type" : "VEC3", "max" : [0, 1.0000044107437134, 1.0000044107437134], "min" : [0, -1.0000044107437134, -1.0000044107437134], "name" : "NORMAL"}, {"bufferView" : 2, "byteOffset" : 24, "componentType" : 5126, "count" : 120, "type" : "VEC2", "max" : [30.708662033081055, 0.3903326094150543], "min" : [-30.708662033081055, -0.6034019589424133], "name" : "TEXCOORD_0"}, {"bufferView" : 0, "byteOffset" : 456, "componentType" : 5123, "count" : 144, "type" : "SCALAR", "max" : [119], "min" : [0]}, {"bufferView" : 3, "byteOffset" : 0, "componentType" : 5126, "count" : 120, "type" : "VEC3", "max" : [-0.009999999776482582, 0.9637085199356079, -0.2800000011920929], "min" : [-0.7900000214576721, 0.9437085390090942, -0.30000001192092896], "name" : "POSITION"}, {"bufferView" : 3, "byteOffset" : 12, "componentType" : 5126, "count" : 120, "type" : "VEC3", "max" : [0, 1.0000044107437134, 1.0000044107437134], "min" : [0, -1.0000044107437134, -1.0000044107437134], "name" : "NORMAL"}, {"bufferView" : 3, "byteOffset" : 24, "componentType" : 5126, "count" : 120, "type" : "VEC2", "max" : [30.708662033081055, 0.3903326094150543], "min" : [-30.708662033081055, -0.6034019589424133], "name" : "TEXCOORD_0"}, {"bufferView" : 0, "byteOffset" : 744, "componentType" : 5123, "count" : 240, "type" : "SCALAR", "max" : [208], "min" : [0]}, {"bufferView" : 4, "byteOffset" : 0, "componentType" : 5126, "count" : 209, "type" : "VEC3", "max" : [-7.638334409421077E-14, 1.899999976158142, -0], "min" : [-0.800000011920929, 0, -0.6000000238418579], "name" : "POSITION"}, {"bufferView" : 4, "byteOffset" : 12, "componentType" : 5126, "count" : 209, "type" : "VEC3", "max" : [1.0000044107437134, 1.0000044107437134, 1.0000044107437134], "min" : [-1.0000044107437134, -1.0000044107437134, -1.0000044107437134], "name" : "NORMAL"}, {"bufferView" : 4, "byteOffset" : 24, "componentType" : 5126, "count" : 209, "type" : "VEC2", "max" : [31.496063232421875, -0], "min" : [-31.496063232421875, -74.80314636230469], "name" : "TEXCOORD_0"}], "asset" : {"generator" : "Aspose.3D 22.1", "version" : "2.0"}, "buffers" : [{"uri" : "data:application/octet-stream;base64,", "byteLength" : 20828}], "bufferViews" : [{"buffer" : 0, "byteOffset" : 0, "byteLength" : 1224, "target" : 34963}, {"buffer" : 0, "byteOffset" : 1228, "byteLength" : 2688, "byteStride" : 32, "target" : 34962}, {"buffer" : 0, "byteOffset" : 3920, "byteLength" : 4608, "byteStride" : 32, "target" : 34962}, {"buffer" : 0, "byteOffset" : 8532, "byteLength" : 4608, "byteStride" : 32, "target" : 34962}, {"buffer" : 0, "byteOffset" : 13144, "byteLength" : 7680, "byteStride" : 32, "target" : 34962}], "materials" : [{"name" : "", "pbrMetallicRoughness" : {"baseColorFactor" : [1, 1, 1, 1], "metallicFactor" : 0, "roughnessFactor" : 0}, "emissiveFactor" : [0, 0, 0], "alphaMode" : "OPAQUE", "doubleSided" : false}, {"name" : "", "pbrMetallicRoughness" : {"baseColorFactor" : [0.6666666666666671, 0.6666666666666671, 0.6666666666666671, 1], "metallicFactor" : 0, "roughnessFactor" : 0}, "emissiveFactor" : [0, 0, 0], "alphaMode" : "OPAQUE", "doubleSided" : false}, {"name" : "", "pbrMetallicRoughness" : {"baseColorFactor" : [0.6666666666666671, 0.6666666666666671, 0.6666666666666671, 1], "metallicFactor" : 0, "roughnessFactor" : 0}, "emissiveFactor" : [0, 0, 0], "alphaMode" : "OPAQUE", "doubleSided" : false}, {"name" : "", "pbrMetallicRoughness" : {"baseColorFactor" : [1, 1, 1, 1], "metallicFactor" : 0, "roughnessFactor" : 0}, "emissiveFactor" : [0, 0, 0], "alphaMode" : "OPAQUE", "doubleSided" : false}], "meshes" : [{"primitives" : [{"attributes" : {"POSITION" : 1, "NORMAL" : 2, "TEXCOORD_0" : 3}, "indices" : 0, "material" : 0, "mode" : 4}], "name" : ""}, {"primitives" : [{"attributes" : {"POSITION" : 5, "NORMAL" : 6, "TEXCOORD_0" : 7}, "indices" : 4, "material" : 1, "mode" : 4}], "name" : ""}, {"primitives" : [{"attributes" : {"POSITION" : 9, "NORMAL" : 10, "TEXCOORD_0" : 11}, "indices" : 8, "material" : 2, "mode" : 4}], "name" : ""}, {"primitives" : [{"attributes" : {"POSITION" : 13, "NORMAL" : 14, "TEXCOORD_0" : 15}, "indices" : 12, "material" : 3, "mode" : 4}], "name" : ""}], "nodes" : [{"mesh" : 0, "name" : "Mesh1"}, {"children" : [0], "name" : "Group2"}, {"mesh" : 1, "name" : "Mesh2"}, {"children" : [2], "name" : "Group4"}, {"mesh" : 2, "name" : "Mesh3"}, {"children" : [4], "name" : "Group5"}, {"mesh" : 3, "name" : "Mesh4"}, {"children" : [3, 5, 6], "name" : "Group3"}, {"children" : [1, 7], "name" : "Group1"}, {"children" : [8], "name" : "Model"}], "scene" : 0, "scenes" : [{"nodes" : [9]}]}