{"accessors" : [{"bufferView" : 0, "byteOffset" : 0, "componentType" : 5123, "count" : 1869, "type" : "SCALAR", "max" : [1622], "min" : [0]}, {"bufferView" : 1, "byteOffset" : 0, "componentType" : 5126, "count" : 1623, "type" : "VEC3", "max" : [0.7374075055122375, 5.164844512939453, 2.3991024494171143], "min" : [-24.07878875732422, -0.360333114862442, -2.2602062225341797], "name" : "POSITION"}, {"bufferView" : 1, "byteOffset" : 12, "componentType" : 5126, "count" : 1623, "type" : "VEC3", "max" : [0.9336873888969421, 1.0000044107437134, 1.0000044107437134], "min" : [-1.0000044107437134, -1.0000044107437134, -1.0000044107437134], "name" : "NORMAL"}, {"bufferView" : 1, "byteOffset" : 24, "componentType" : 5126, "count" : 1623, "type" : "VEC2", "max" : [15.95251178741455, 14.239283561706543], "min" : [-15.977060317993164, -15.617484092712402], "name" : "TEXCOORD_0"}, {"bufferView" : 0, "byteOffset" : 3740, "componentType" : 5123, "count" : 12, "type" : "SCALAR", "max" : [11], "min" : [0]}, {"bufferView" : 2, "byteOffset" : 0, "componentType" : 5126, "count" : 12, "type" : "VEC3", "max" : [-11.62468147277832, 3.185232162475586, 0.37144142389297485], "min" : [-11.93454360961914, 2.9201197624206543, -0.2325451821088791], "name" : "POSITION"}, {"bufferView" : 2, "byteOffset" : 12, "componentType" : 5126, "count" : 12, "type" : "VEC3", "max" : [0.6461651921272278, 0.9931618571281433, 0.11635193973779678], "min" : [0.010023719631135464, 0.7632033824920654, -0.11635193973779678], "name" : "NORMAL"}, {"bufferView" : 2, "byteOffset" : 24, "componentType" : 5126, "count" : 12, "type" : "VEC2", "max" : [342.73004150390625, 231.21139526367188], "min" : [-186.50340270996094, -382.4585266113281], "name" : "TEXCOORD_0"}, {"bufferView" : 0, "byteOffset" : 3764, "componentType" : 5123, "count" : 7332, "type" : "SCALAR", "max" : [6081], "min" : [0]}, {"bufferView" : 3, "byteOffset" : 0, "componentType" : 5126, "count" : 6082, "type" : "VEC3", "max" : [-10.320586204528809, 2.4146533012390137, 1.3189841508865356], "min" : [-14.598947525024414, 1.8712884187698364, 1.1851935386657715], "name" : "POSITION"}, {"bufferView" : 3, "byteOffset" : 12, "componentType" : 5126, "count" : 6082, "type" : "VEC3", "max" : [1.0000044107437134, 0.991449236869812, 0.991449236869812], "min" : [-1.0000044107437134, -0.991449236869812, -0.991449236869812], "name" : "NORMAL"}, {"bufferView" : 3, "byteOffset" : 24, "componentType" : 5126, "count" : 6082, "type" : "VEC2", "max" : [79.689208984375, -0], "min" : [-79.689208984375, -9.974507331848145], "name" : "TEXCOORD_0"}, {"bufferView" : 0, "byteOffset" : 18428, "componentType" : 5123, "count" : 6, "type" : "SCALAR", "max" : [4], "min" : [0]}, {"bufferView" : 4, "byteOffset" : 0, "componentType" : 5126, "count" : 5, "type" : "VEC3", "max" : [-16.59482192993164, 3.098813056945801, 1.5989574193954468], "min" : [-19.45415687561035, 1.4023655652999878, 1.2335997819900513], "name" : "POSITION"}, {"bufferView" : 4, "byteOffset" : 12, "componentType" : 5126, "count" : 5, "type" : "VEC3", "max" : [-0.049568939954042435, -0.13036632537841797, 0.9902305006980896], "min" : [-0.049568939954042435, -0.13036632537841797, 0.9902305006980896], "name" : "NORMAL"}, {"bufferView" : 4, "byteOffset" : 24, "componentType" : 5126, "count" : 5, "type" : "VEC2", "max" : [1, -0], "min" : [0, -1], "name" : "TEXCOORD_0"}], "asset" : {"generator" : "Aspose.3D 22.1", "version" : "2.0"}, "buffers" : [{"uri" : "data:application/octet-stream;base64,", "byteLength" : 313468}], "bufferViews" : [{"buffer" : 0, "byteOffset" : 0, "byteLength" : 18440, "target" : 34963}, {"buffer" : 0, "byteOffset" : 18444, "byteLength" : 59808, "byteStride" : 32, "target" : 34962}, {"buffer" : 0, "byteOffset" : 78256, "byteLength" : 384, "byteStride" : 32, "target" : 34962}, {"buffer" : 0, "byteOffset" : 78644, "byteLength" : 234624, "byteStride" : 32, "target" : 34962}, {"buffer" : 0, "byteOffset" : 313272, "byteLength" : 192, "byteStride" : 32, "target" : 34962}], "images" : [{"uri" : "Untitled/Metal_Aluminum_Anodized.jpg"}, {"uri" : "Untitled/news18.jpg"}], "materials" : [{"name" : "", "pbrMetallicRoughness" : {"baseColorFactor" : [0.25490196078431404, 0.262745098039216, 0.27843137254902, 1], "baseColorTexture" : {"index" : 0, "texCoord" : 0}, "metallicFactor" : 0, "roughnessFactor" : 0}, "emissiveFactor" : [0, 0, 0], "alphaMode" : "OPAQUE", "doubleSided" : false}, {"name" : "", "pbrMetallicRoughness" : {"baseColorFactor" : [1, 1, 1, 1], "metallicFactor" : 0, "roughnessFactor" : 0}, "emissiveFactor" : [0, 0, 0], "alphaMode" : "OPAQUE", "doubleSided" : false}, {"name" : "", "pbrMetallicRoughness" : {"baseColorFactor" : [1, 1, 1, 1], "metallicFactor" : 0, "roughnessFactor" : 0}, "emissiveFactor" : [0, 0, 0], "alphaMode" : "OPAQUE", "doubleSided" : false}, {"name" : "", "pbrMetallicRoughness" : {"baseColorFactor" : [0.5019607843137249, 0.5019607843137249, 0.5019607843137249, 1], "baseColorTexture" : {"index" : 1, "texCoord" : 0}, "metallicFactor" : 0, "roughnessFactor" : 0}, "emissiveFactor" : [0, 0, 0], "alphaMode" : "OPAQUE", "doubleSided" : false}], "meshes" : [{"primitives" : [{"attributes" : {"POSITION" : 1, "NORMAL" : 2, "TEXCOORD_0" : 3}, "indices" : 0, "material" : 0, "mode" : 4}, {"attributes" : {"POSITION" : 5, "NORMAL" : 6, "TEXCOORD_0" : 7}, "indices" : 4, "material" : 1, "mode" : 4}], "name" : ""}, {"primitives" : [{"attributes" : {"POSITION" : 9, "NORMAL" : 10, "TEXCOORD_0" : 11}, "indices" : 8, "material" : 2, "mode" : 4}], "name" : ""}, {"primitives" : [{"attributes" : {"POSITION" : 13, "NORMAL" : 14, "TEXCOORD_0" : 15}, "indices" : 12, "material" : 3, "mode" : 4}], "name" : ""}], "nodes" : [{"mesh" : 0, "name" : "Mesh1"}, {"children" : [0], "name" : "Submarine1"}, {"mesh" : 1, "name" : "Mesh2"}, {"children" : [2], "name" : "G_30000_______1"}, {"children" : [1, 3], "name" : "Group2"}, {"mesh" : 2, "name" : "Mesh3"}, {"children" : [4, 5], "name" : "Group1"}, {"children" : [6], "name" : "Model"}], "samplers" : [{"magFilter" : 9729, "minFilter" : 9729, "wrapS" : 10497, "wrapT" : 10497}, {"magFilter" : 9729, "minFilter" : 9729, "wrapS" : 10497, "wrapT" : 10497}], "scene" : 0, "scenes" : [{"nodes" : [7]}], "textures" : [{"sampler" : 0, "source" : 0}, {"sampler" : 1, "source" : 1}]}