<?xml version="1.0" encoding="UTF-8" standalone="no"?>
<svg
   xmlns:dc="http://purl.org/dc/elements/1.1/"
   xmlns:cc="http://creativecommons.org/ns#"
   xmlns:rdf="http://www.w3.org/1999/02/22-rdf-syntax-ns#"
   xmlns:svg="http://www.w3.org/2000/svg"
   xmlns="http://www.w3.org/2000/svg"
   xmlns:sodipodi="http://sodipodi.sourceforge.net/DTD/sodipodi-0.dtd"
   xmlns:inkscape="http://www.inkscape.org/namespaces/inkscape"
   version="1.1"
   id="svg2"
   xml:space="preserve"
   width="2666.6667"
   height="2666.6667"
   viewBox="0 0 2666.6667 2666.6667"
   sodipodi:docname="vecteezy_back-office-to-manage-the-business-and-various-tasks-to_.eps"><metadata
     id="metadata8"><rdf:RDF><cc:Work
         rdf:about=""><dc:format>image/svg+xml</dc:format><dc:type
           rdf:resource="http://purl.org/dc/dcmitype/StillImage" /></cc:Work></rdf:RDF></metadata><defs
     id="defs6"><clipPath
       clipPathUnits="userSpaceOnUse"
       id="clipPath158"><path
         d="m 17237.3,9700.5 c 0.2,33.5 0.7,67.1 1.7,100.5 4.6,168.4 -6.8,410.1 80.9,574.1 55.2,103.4 209.5,91.7 249.1,-18.6 4.6,-13 8.4,-25.6 11.3,-37.1 38.7,-152.3 15.4,-326.6 -2.1,-481.7 -27.6,-244.6 -76.5,-486.5 -113.3,-729.7 -7.2,-47.4 -20,-212.5 -85.8,-218.5 -62.5,-5.7 -91.2,111.2 -97.4,154.1 -31.6,217.3 -45.8,437.3 -44.4,656.9 z"
         id="path156" /></clipPath><linearGradient
       x1="0"
       y1="0"
       x2="1"
       y2="0"
       gradientUnits="userSpaceOnUse"
       gradientTransform="matrix(0,1557.03,1557.03,0,17419.3,8889.3)"
       spreadMethod="pad"
       id="linearGradient168"><stop
         style="stop-opacity:1;stop-color:#26544c"
         offset="0"
         id="stop160" /><stop
         style="stop-opacity:1;stop-color:#3a8175"
         offset="0.71839214"
         id="stop162" /><stop
         style="stop-opacity:1;stop-color:#3a8175"
         offset="0.998953"
         id="stop164" /><stop
         style="stop-opacity:1;stop-color:#3a8175"
         offset="1"
         id="stop166" /></linearGradient><clipPath
       clipPathUnits="userSpaceOnUse"
       id="clipPath254"><path
         d="m 11604.8,11986.3 c -56.8,0 -114.6,7.3 -172.1,22.7 -298.2,79.4 -495.1,348.8 -495.4,643.4 0,57 7.3,115 22.7,172.7 79.5,298.3 349.2,495.3 644,495.3 56.8,0 114.6,-7.3 172.1,-22.7 298.2,-79.4 495.1,-348.8 495.3,-643.5 0,-56.9 -7.3,-114.9 -22.6,-172.6 -79.6,-298.3 -349.2,-495.3 -644,-495.3 m -369.2,854.5 c -10,0 -20.1,-2.6 -29.3,-8.1 -27,-16.1 -35.8,-51.2 -19.6,-78.2 l 179.9,-300.5 c 7.9,-13.3 20.4,-22.2 34.2,-25.9 4.8,-1.2 9.8,-1.9 14.7,-1.9 9.3,0 18.7,2.3 27.4,7 l 634.4,347.2 c 27.6,15.1 37.7,49.8 22.6,77.4 -10.4,19 -29.9,29.7 -50.1,29.7 -9.2,0 -18.6,-2.3 -27.3,-7 l -586.2,-320.9 -151.7,253.5 c -10.7,17.8 -29.6,27.7 -49,27.7"
         id="path252" /></clipPath><linearGradient
       x1="0"
       y1="0"
       x2="1"
       y2="0"
       gradientUnits="userSpaceOnUse"
       gradientTransform="matrix(-343.453,-1288.75,-1288.75,343.453,11776.1,13297.7)"
       spreadMethod="pad"
       id="linearGradient260"><stop
         style="stop-opacity:1;stop-color:#8aaab3"
         offset="0"
         id="stop256" /><stop
         style="stop-opacity:1;stop-color:#6f929c"
         offset="1"
         id="stop258" /></linearGradient><clipPath
       clipPathUnits="userSpaceOnUse"
       id="clipPath270"><path
         d="m 11415.5,12426.2 c -4.9,0 -9.9,0.7 -14.7,1.9 -13.8,3.7 -26.3,12.6 -34.2,25.9 l -179.9,300.5 c -16.2,27 -7.4,62.1 19.6,78.2 9.2,5.5 19.3,8.1 29.3,8.1 19.4,0 38.3,-9.9 49,-27.7 l 151.7,-253.5 586.2,320.9 c 8.7,4.7 18.1,7 27.3,7 20.2,0 39.7,-10.7 50.1,-29.7 15.1,-27.6 5,-62.3 -22.6,-77.4 l -634.4,-347.2 c -8.7,-4.7 -18.1,-7 -27.4,-7"
         id="path268" /></clipPath><linearGradient
       x1="0"
       y1="0"
       x2="1"
       y2="0"
       gradientUnits="userSpaceOnUse"
       gradientTransform="matrix(-343.453,-1288.75,-1288.75,343.453,11776.1,13297.7)"
       spreadMethod="pad"
       id="linearGradient276"><stop
         style="stop-opacity:1;stop-color:#fffdeb"
         offset="0"
         id="stop272" /><stop
         style="stop-opacity:1;stop-color:#fffce3"
         offset="1"
         id="stop274" /></linearGradient></defs><sodipodi:namedview
     pagecolor="#ffffff"
     bordercolor="#666666"
     borderopacity="1"
     objecttolerance="10"
     gridtolerance="10"
     guidetolerance="10"
     inkscape:pageopacity="0"
     inkscape:pageshadow="2"
     inkscape:window-width="640"
     inkscape:window-height="480"
     id="namedview4" /><g
     id="g10"
     inkscape:groupmode="layer"
     inkscape:label="ink_ext_XXXXXX"
     transform="matrix(1.3333333,0,0,-1.3333333,0,2666.6667)"><g
       id="g12"
       transform="scale(0.1)"><path
         d="M 14.5547,0 H 19999.955 V 20000 H 14.5547 Z"
         style="fill:#ffffff;fill-opacity:1;fill-rule:nonzero;stroke:none"
         id="path14" /><path
         d="M 14.5547,0 H 19999.955 V 3837.3 H 14.5547 Z"
         style="fill:#d7b1a0;fill-opacity:1;fill-rule:nonzero;stroke:none"
         id="path16" /><path
         d="M 19985.4,4162.4 H 0 v -394.2 h 19985.4 v 394.2"
         style="fill:#f3f0ed;fill-opacity:1;fill-rule:nonzero;stroke:none"
         id="path18" /><path
         d="m 10365.6,632.102 c -4883.75,0 -8842.82,550.498 -8842.82,1229.498 0,679 3959.07,1229.4 8842.82,1229.4 4883.8,0 8842.9,-550.4 8842.9,-1229.4 0,-679 -3959.1,-1229.498 -8842.9,-1229.498"
         style="fill:#be9283;fill-opacity:1;fill-rule:nonzero;stroke:none"
         id="path20" /><path
         d="m 10560.5,15551.7 v 0 c -171.9,0 -311.1,139.3 -311.1,311.2 v 0 c 0,171.8 139.2,311.1 311.1,311.1 v 0 c 171.8,0 311.1,-139.3 311.1,-311.1 v 0 c 0,-171.9 -139.3,-311.2 -311.1,-311.2"
         style="fill:#ffcf32;fill-opacity:1;fill-rule:nonzero;stroke:none"
         id="path22" /><path
         d="m 10579.8,15742.7 c -4.1,0 -8.1,1.4 -11.5,4.2 L 10372,15912 c -7.5,6.3 -8.5,17.5 -2.2,25.1 6.3,7.5 17.5,8.5 25.1,2.1 l 183.2,-154 387.3,429.2 c 6.6,7.3 17.9,7.8 25.2,1.3 7.3,-6.6 7.8,-17.9 1.3,-25.2 l -398.9,-441.9 c -3.5,-3.9 -8.4,-5.9 -13.2,-5.9"
         style="fill:#2b2a2a;fill-opacity:1;fill-rule:nonzero;stroke:none"
         id="path24" /><path
         d="m 10560.5,14483.4 v 0 c -171.9,0 -311.1,139.3 -311.1,311.1 v 0 c 0,171.8 139.2,311.1 311.1,311.1 v 0 c 171.8,0 311.1,-139.3 311.1,-311.1 v 0 c 0,-171.8 -139.3,-311.1 -311.1,-311.1"
         style="fill:#ffcf32;fill-opacity:1;fill-rule:nonzero;stroke:none"
         id="path26" /><path
         d="m 10579.8,14674.4 c -4.1,0 -8.1,1.3 -11.5,4.1 l -196.3,165.2 c -7.5,6.3 -8.5,17.5 -2.2,25 6.3,7.5 17.5,8.5 25.1,2.2 l 183.2,-154.1 387.3,429.2 c 6.6,7.3 17.9,7.9 25.2,1.3 7.3,-6.6 7.8,-17.8 1.3,-25.1 l -398.9,-442 c -3.5,-3.8 -8.4,-5.8 -13.2,-5.8"
         style="fill:#2b2a2a;fill-opacity:1;fill-rule:nonzero;stroke:none"
         id="path28" /><path
         d="M 12515.6,16019.1 H 11214 c -9.8,0 -17.7,8 -17.7,17.8 0,9.8 7.9,17.8 17.7,17.8 h 1301.6 c 9.8,0 17.8,-8 17.8,-17.8 0,-9.8 -8,-17.8 -17.8,-17.8"
         style="fill:#2b2a2a;fill-opacity:1;fill-rule:nonzero;stroke:none"
         id="path30" /><path
         d="M 12515.6,15845.1 H 11214 c -9.8,0 -17.7,7.9 -17.7,17.8 0,9.8 7.9,17.7 17.7,17.7 h 1301.6 c 9.8,0 17.8,-7.9 17.8,-17.7 0,-9.9 -8,-17.8 -17.8,-17.8"
         style="fill:#2b2a2a;fill-opacity:1;fill-rule:nonzero;stroke:none"
         id="path32" /><path
         d="M 12515.6,15671 H 11214 c -9.8,0 -17.7,8 -17.7,17.8 0,9.8 7.9,17.8 17.7,17.8 h 1301.6 c 9.8,0 17.8,-8 17.8,-17.8 0,-9.8 -8,-17.8 -17.8,-17.8"
         style="fill:#2b2a2a;fill-opacity:1;fill-rule:nonzero;stroke:none"
         id="path34" /><path
         d="M 12515.6,14950.7 H 11214 c -9.8,0 -17.7,8 -17.7,17.8 0,9.9 7.9,17.8 17.7,17.8 h 1301.6 c 9.8,0 17.8,-7.9 17.8,-17.8 0,-9.8 -8,-17.8 -17.8,-17.8"
         style="fill:#2b2a2a;fill-opacity:1;fill-rule:nonzero;stroke:none"
         id="path36" /><path
         d="M 12515.6,14776.7 H 11214 c -9.8,0 -17.7,8 -17.7,17.8 0,9.8 7.9,17.8 17.7,17.8 h 1301.6 c 9.8,0 17.8,-8 17.8,-17.8 0,-9.8 -8,-17.8 -17.8,-17.8"
         style="fill:#2b2a2a;fill-opacity:1;fill-rule:nonzero;stroke:none"
         id="path38" /><path
         d="M 12515.6,14602.7 H 11214 c -9.8,0 -17.7,8 -17.7,17.8 0,9.8 7.9,17.8 17.7,17.8 h 1301.6 c 9.8,0 17.8,-8 17.8,-17.8 0,-9.8 -8,-17.8 -17.8,-17.8"
         style="fill:#2b2a2a;fill-opacity:1;fill-rule:nonzero;stroke:none"
         id="path40" /><path
         d="M 8538.27,12681.8 H 4755.83 c -81.25,0 -147.12,65.9 -147.12,147.1 v 3136.7 c 0,81.2 65.86,147.1 147.09,147.1 h 3782.47 c 81.24,0 147.09,-65.9 147.09,-147.1 v -3136.7 c 0,-81.2 -65.85,-147.1 -147.09,-147.1"
         style="fill:#e9e5e2;fill-opacity:1;fill-rule:nonzero;stroke:none"
         id="path42" /><path
         d="m 8685.35,15869.3 v 96.3 c 0,81.2 -65.84,147.1 -147.08,147.1 H 4755.8 c -81.23,0 -147.09,-65.9 -147.09,-147.1 v -96.3 h 4076.64"
         style="fill:#2e2e45;fill-opacity:1;fill-rule:nonzero;stroke:none"
         id="path44" /><path
         d="m 6110.64,15257.7 v -679.8 c 0,-47.2 -38.23,-85.4 -85.41,-85.4 h -679.78 c -47.18,0 -85.42,38.2 -85.42,85.4 v 679.8 c 0,47.2 38.24,85.4 85.42,85.4 h 679.78 c 47.18,0 85.41,-38.2 85.41,-85.4"
         style="fill:#d1cdc9;fill-opacity:1;fill-rule:nonzero;stroke:none"
         id="path46" /><path
         d="m 7645.9,14874.7 h -900.75 c -23.79,0 -43.09,19.3 -43.09,43.1 0,23.8 19.3,43.1 43.09,43.1 h 900.75 c 23.8,0 43.1,-19.3 43.1,-43.1 0,-23.8 -19.3,-43.1 -43.1,-43.1"
         style="fill:#d1cdc9;fill-opacity:1;fill-rule:nonzero;stroke:none"
         id="path48" /><path
         d="m 5345.45,13974.9 c -23.33,0 -42.32,-19 -42.32,-42.3 v -679.8 c 0,-23.4 18.99,-42.4 42.32,-42.4 h 679.78 c 23.34,0 42.31,19 42.31,42.4 v 679.8 c 0,23.3 -18.97,42.3 -42.31,42.3 z m 679.78,-850.6 h -679.78 c -70.85,0 -128.51,57.6 -128.51,128.5 v 679.8 c 0,70.8 57.66,128.4 128.51,128.4 h 679.78 c 70.86,0 128.5,-57.6 128.5,-128.4 v -679.8 c 0,-70.9 -57.64,-128.5 -128.5,-128.5"
         style="fill:#d1cdc9;fill-opacity:1;fill-rule:nonzero;stroke:none"
         id="path50" /><path
         d="m 7642.75,13549.6 h -900.73 c -23.79,0 -43.09,19.3 -43.09,43.1 0,23.8 19.3,43 43.09,43 h 900.73 c 23.79,0 43.1,-19.2 43.1,-43 0,-23.8 -19.31,-43.1 -43.1,-43.1"
         style="fill:#d1cdc9;fill-opacity:1;fill-rule:nonzero;stroke:none"
         id="path52" /><path
         d="M 9734.01,12244.9 H 8102.57 c -31.48,0 -57,25.5 -57,57 v 1072.2 c 0,31.5 25.52,57 57,57 h 1631.44 c 31.48,0 57,-25.5 57,-57 v -1072.2 c 0,-31.5 -25.52,-57 -57,-57"
         style="fill:#edbd5a;fill-opacity:1;fill-rule:nonzero;stroke:none"
         id="path54" /><path
         d="m 8902.14,12818.9 c -3.75,0 -7.5,1.1 -10.74,3.3 l -719.53,489 c -8.73,6 -10.99,17.9 -5.06,26.6 5.93,8.7 17.82,11 26.55,5 l 708.78,-481.7 741.09,503.7 c 8.75,5.9 20.62,3.6 26.54,-5.1 5.94,-8.7 3.67,-20.6 -5.06,-26.5 l -751.82,-511 c -3.25,-2.2 -7,-3.3 -10.75,-3.3"
         style="fill:#fffdea;fill-opacity:1;fill-rule:nonzero;stroke:none"
         id="path56" /><path
         d="m 11190.4,8741.6 c -172,-15.6 -345.7,15.3 -517.9,1.4 -172.2,-14 -356.5,-87.7 -429.9,-244.1 -8.7,-18.6 -15.8,-38.8 -14,-59.3 7.5,-84.4 130.2,-85 212.2,-63.7 276.6,71.8 563.2,106.9 848.8,108.9 290,2.1 488.7,38.7 766,144.6 380.5,145.4 747,324.4 1108.2,512.2 294,152.9 591.6,307 667.2,666 37.5,178.1 -44.7,392.3 -218.1,447.9 -125.2,40.2 -264.5,-10.4 -367,-92.9 -102.5,-82.4 -177.2,-193.4 -258.3,-296.9 -221.4,-282.2 -501.9,-517.7 -817.5,-688 -321.6,-173.5 -596.8,-401.2 -979.7,-436.1"
         style="fill:#81694d;fill-opacity:1;fill-rule:nonzero;stroke:none"
         id="path58" /><path
         d="m 13240.5,10377.4 c -32,-53.2 -171.6,-235.7 -204,-288.6 158.1,-237.8 388,-555 546.1,-792.8 4.4,-6.6 652.4,579.8 708.6,636.4 174.2,175.4 375.2,416.7 440.8,662.4 51.6,193 -11.2,487.5 -14.3,695.4 -2.9,190.6 -31.7,568.4 -312.1,512.7 -252.2,-50.1 -528.6,-490 -658.8,-692.5 -179,-278.1 -319.4,-422.7 -506.3,-733"
         style="fill:#edbd5a;fill-opacity:1;fill-rule:nonzero;stroke:none"
         id="path60" /><path
         d="M 15930.6,6005.7 16827,2398.5 h -209.3 l -896.5,3607.2 h 209.4"
         style="fill:#977145;fill-opacity:1;fill-rule:nonzero;stroke:none"
         id="path62" /><path
         d="m 14816.7,4203.2 112.1,31.7 -495.9,1750.1 -112.1,-31.8 495.9,-1750"
         style="fill:#7a5938;fill-opacity:1;fill-rule:nonzero;stroke:none"
         id="path64" /><path
         d="m 14015.5,4189.3 1292.1,1745.2 -93.7,69.3 -1292.1,-1745.2 93.7,-69.3"
         style="fill:#7a5938;fill-opacity:1;fill-rule:nonzero;stroke:none"
         id="path66" /><path
         d="m 15300.4,6011.8 -79.4,-85.3 1853,-1725.7 79.4,85.2 -1853,1725.8"
         style="fill:#7a5938;fill-opacity:1;fill-rule:nonzero;stroke:none"
         id="path68" /><path
         d="m 14486.1,6007.9 -883.6,-3609.4 h -206.3 l 883.6,3609.4 h 206.3"
         style="fill:#977145;fill-opacity:1;fill-rule:nonzero;stroke:none"
         id="path70" /><path
         d="m 14912.6,4201 1835.6,1725.7 -79.8,84.9 -1835.6,-1725.8 79.8,-84.8"
         style="fill:#7a5938;fill-opacity:1;fill-rule:nonzero;stroke:none"
         id="path72" /><path
         d="m 16814.9,6005.7 896.4,-3607.2 h -209.4 l -896.4,3607.2 h 209.4"
         style="fill:#977145;fill-opacity:1;fill-rule:nonzero;stroke:none"
         id="path74" /><path
         d="m 15368.9,6005.7 -896.4,-3607.2 h -209.4 l 896.4,3607.2 h 209.4"
         style="fill:#977145;fill-opacity:1;fill-rule:nonzero;stroke:none"
         id="path76" /><path
         d="m 13263.2,6407.7 v -27.6 c 0,-230.4 186.8,-417.1 417.2,-417.1 H 16948 c 504,0 891.8,462.7 822.3,981.2 l -368.9,2889 c -31.9,239.3 -228.8,417.3 -461.4,417.3 h -968.5 c -232.4,0 -429.3,-178 -461.4,-417.3 l -368.9,-2889 c -2.8,-20.6 -4.8,-41.2 -6,-61.7 l -2,0.3 c 0,0 -68.2,-475.1 -702.5,-475.1 h -1167.5"
         style="fill:#6da3c5;fill-opacity:1;fill-rule:nonzero;stroke:none"
         id="path78" /><path
         d="m 13527.9,3207.8 39.8,-454.4 c 0,0 -415,32.4 -488.9,-256.5 l 1227,107.3 c 0,0 -3,121.9 -60,162.7 l -72.4,566.1 -645.5,-125.2"
         style="fill:#6d5741;fill-opacity:1;fill-rule:nonzero;stroke:none"
         id="path80" /><path
         d="m 14327.2,2528.2 -1262.7,-110.5 c -6.9,-0.6 -12.9,4.5 -13.5,11.4 l -4.6,52.4 c -0.6,6.9 4.5,12.9 11.3,13.5 l 1262.7,110.5 c 6.9,0.6 12.9,-4.5 13.5,-11.3 l 4.6,-52.5 c 0.6,-6.8 -4.5,-12.9 -11.3,-13.5"
         style="fill:#5781af;fill-opacity:1;fill-rule:nonzero;stroke:none"
         id="path82" /><path
         d="m 13246.8,2696.1 c 0,0 159.4,-30 197.3,-190.2 l 141.1,12.3 c 0,0 -30,186.6 -181.2,226.1 0,0 -67.6,22.6 -157.2,-48.2"
         style="fill:#5781af;fill-opacity:1;fill-rule:nonzero;stroke:none"
         id="path84" /><path
         d="m 12779.6,7566.3 c -382,-354.5 -360.3,-934.4 -273.6,-1466.1 154.2,-945.4 391.3,-1873.3 706.6,-2765.5 87.2,-247 188.4,-369.7 410,-359.2 59.1,2.8 673.1,132.1 664.6,180.3 -98.2,555.2 -224.7,1104 -378.7,1642.6 -85.3,298.4 -180,616.6 -106.1,918.9 81.5,333 348.6,562 618.4,721.1 269.8,159.2 564.4,279.1 789.4,511.5 225,232.4 361.7,626.4 214.6,928.8 -219.2,450.7 -791.5,433.7 -1157.5,302.9 -478.7,-171.2 -976.2,-229.9 -1405.8,-547.4 -29.2,-21.6 -56.5,-44.3 -81.9,-67.9"
         style="fill:#1f1f2d;fill-opacity:1;fill-rule:nonzero;stroke:none"
         id="path86" /><path
         d="m 14424.7,3142.6 128.2,-437.8 c 0,0 -413.2,-49.7 -429,-347.5 l 1182.1,346.2 c 0,0 -26.9,118.9 -90.8,147.7 l -182.2,540.9 -608.3,-249.5"
         style="fill:#81694d;fill-opacity:1;fill-rule:nonzero;stroke:none"
         id="path88" /><path
         d="m 15341.8,2633.1 -1216.4,-356.2 c -6.6,-1.9 -13.5,1.9 -15.4,8.5 l -14.8,50.5 c -2,6.6 1.8,13.5 8.4,15.5 l 1216.4,356.2 c 6.6,1.9 13.6,-1.9 15.5,-8.5 l 14.8,-50.5 c 1.9,-6.6 -1.9,-13.5 -8.5,-15.5"
         style="fill:#6da3c5;fill-opacity:1;fill-rule:nonzero;stroke:none"
         id="path90" /><path
         d="m 14249.6,2585.6 c 0,0 162.1,1.9 230.7,-147.7 l 136,39.8 c 0,0 -66.1,177.1 -222.1,186 0,0 -70.7,8.9 -144.6,-78.1"
         style="fill:#6da3c5;fill-opacity:1;fill-rule:nonzero;stroke:none"
         id="path92" /><path
         d="m 16825.3,6912.1 c -133,-127.7 -302.5,-193 -468.3,-253.4 -305.5,-111.4 -613.1,-215.6 -922.4,-312.4 -143.8,-45 -293.3,-106.8 -440.7,-132.6 -59.6,-10.5 -300.3,3.2 -327.6,-47.5 -26.4,-49 -18.8,-111.5 -10.1,-168.2 150.2,-986 333.5,-1965 516.7,-2943.7 0,0 -698,-180.9 -698.9,-178.9 -96.2,206.9 -209.1,497.6 -333,745.4 -295.1,590.1 -513.3,1236.1 -762.8,1852.8 -287.1,710 -357.7,1907.5 475.1,2162.6 529.9,162.3 1075.5,248 1620.3,322.7 277.8,38.1 560.1,73.4 836.4,22.8 459.8,-84.3 1038.2,-567.8 515.3,-1069.6"
         style="fill:#323149;fill-opacity:1;fill-rule:nonzero;stroke:none"
         id="path94" /><path
         d="m 14403.9,8727 c 13.5,-78.2 27,-156.4 40.4,-234.6 13.6,-78.8 27.9,-159.6 68.5,-228.5 167.8,-284.4 728.3,-422.8 1016.3,-525.3 421.7,-150 908.4,-219.6 1349.3,-286.1 204,-30.8 212.7,-49.7 250.6,160.5 36,200.4 35,417.3 39.5,620.5 9.3,413.4 -17.8,828.5 -99.1,1234.4 -183.2,915.2 -1083,2873.9 -2321.3,2530.2 -203.9,-56.6 -355.3,-225.5 -429.7,-419.1 -317.7,-826.5 -121.8,-1647.8 24.9,-2499.7 20.2,-117.5 40.4,-234.9 60.6,-352.3"
         style="fill:#edbd5a;fill-opacity:1;fill-rule:nonzero;stroke:none"
         id="path96" /><path
         d="m 14514.8,11587.7 c -17.1,10.7 -32.6,26 -44.9,45.5 -66.5,105.4 -94.1,146.1 -103.6,265.2 -6.7,84.5 -13.4,169.1 -20.2,253.7 l 390,31.1 23.1,-290.2 c 6.6,-82.9 -31,-160.9 -70.2,-232.3 -35.9,-65.3 -102.2,-117.8 -174.2,-73"
         style="fill:#81694d;fill-opacity:1;fill-rule:nonzero;stroke:none"
         id="path98" /><path
         d="m 14372.9,11815.5 -21.1,264.9 c 4.9,-60.7 9.7,-121.4 14.5,-182 2.5,-31.5 6.3,-57.6 11.7,-80.8 -1.7,-0.7 -3.4,-1.4 -5.1,-2.1 m -26.8,336.6 390,31.1 -390,-31.1"
         style="fill:#b9b4b1;fill-opacity:1;fill-rule:nonzero;stroke:none"
         id="path100" /><path
         d="m 14378,11817.6 c -5.4,23.2 -9.2,49.3 -11.7,80.8 -4.8,60.6 -9.6,121.3 -14.5,182 l -5.7,71.7 v 0 l 390,31.1 6.7,-84.2 c -78.1,-126.1 -206.7,-216 -364.8,-281.4"
         style="fill:#5e4a35;fill-opacity:1;fill-rule:nonzero;stroke:none"
         id="path102" /><path
         d="m 14001.4,11915.9 c -316.8,138.2 -338.3,588 -312.5,816.1 14.6,128.9 38.7,263.8 119.5,365.3 170,213.4 571,211 672.6,66.8 184,-261.3 344.2,-717.8 185.2,-1020.1 -118.5,-225.3 -428.5,-331.2 -664.8,-228.1"
         style="fill:#81694d;fill-opacity:1;fill-rule:nonzero;stroke:none"
         id="path104" /><path
         d="m 14430.7,12318.8 c 200.7,132.1 138.1,610.4 -55.8,696.4 -85,70.5 -419.2,-3.8 -648,-84.7 17.5,60.4 42.4,117.6 81.5,166.8 170,213.4 582.5,286.3 755.6,54.4 191.2,-256 294.9,-759.4 135.8,-1061.8 -118.5,-225.2 -478.9,-382 -710.4,-268.6 -99.1,48.6 -183.5,216.7 -210.1,305.4 219.9,49.7 475.4,48.1 651.4,192.1"
         style="fill:#6b5845;fill-opacity:1;fill-rule:nonzero;stroke:none"
         id="path106" /><path
         d="m 14490.3,12530 c 18.4,75.2 90.9,141.2 170.4,99.1 57,-30.2 78.8,-100.8 48.6,-157.8 -17.6,-33.2 -55.4,-54.9 -90.7,-64.2 -32.3,-8.4 -60,-26 -92.2,-3.2 -20.6,14.7 -32.8,38.9 -37.9,63.7 -4.2,20.1 -3.3,41.6 1.8,62.4"
         style="fill:#81694d;fill-opacity:1;fill-rule:nonzero;stroke:none"
         id="path108" /><path
         d="m 14579.5,12456 c 4.1,2.9 5.5,8.5 3.1,13.1 -9.3,17.4 -9.4,38.1 -0.1,55.5 9.2,17.6 26.6,29.2 46.3,31.2 5.6,0.5 9.6,5.5 9.1,11.1 -0.6,5.6 -5.6,9.6 -11.1,9 -26.5,-2.6 -49.8,-18.2 -62.3,-41.8 -12.4,-23.4 -12.3,-51.3 0.2,-74.6 2.6,-4.9 8.8,-6.8 13.7,-4.1 l 1.1,0.6"
         style="fill:#473b31;fill-opacity:1;fill-rule:nonzero;stroke:none"
         id="path110" /><path
         d="m 14103.7,12231.2 1.8,0.2 c 2.2,0.3 35.2,4.1 35.2,4.1 5.9,0.7 10.2,6.1 9.5,12.1 -0.7,6 -6.1,10.2 -12,9.6 l -0.1,-0.1 c -23.4,-2.7 -32,-3.7 -35.6,-4.2 v 0.1 c -25.6,-2.5 -50.7,13.1 -57.2,38.1 -5.5,21.1 3.7,43.5 13.3,67.1 5.3,13 10.8,26.3 13.7,39.6 1.3,5.8 -2.4,11.6 -8.3,12.9 -5.8,1.3 -11.7,-2.4 -13,-8.3 -2.5,-11.4 -7.3,-23.3 -12.5,-35.9 -10.6,-26 -21.6,-52.7 -14.3,-80.9 9.1,-34.9 43.8,-58.5 79.5,-54.4"
         style="fill:#6b5845;fill-opacity:1;fill-rule:nonzero;stroke:none"
         id="path112" /><path
         d="m 14244.7,12576.9 h -0.1 c -30.5,-1.2 -54.3,-27 -53,-57.5 v -0.1 c 1.2,-30.6 27,-54.4 57.6,-53.1 30.5,1.2 54.3,27 53.1,57.6 -1.3,30.6 -27.1,54.3 -57.6,53.1"
         style="fill:#473b31;fill-opacity:1;fill-rule:nonzero;stroke:none"
         id="path114" /><path
         d="m 13850.3,12493.9 h -0.1 c -29.8,-1.2 -53,-26.4 -51.8,-56.2 v -0.1 c 1.2,-29.9 26.4,-53.1 56.3,-51.9 29.8,1.2 53,26.4 51.8,56.3 -1.2,29.8 -26.4,53.1 -56.2,51.9"
         style="fill:#473b31;fill-opacity:1;fill-rule:nonzero;stroke:none"
         id="path116" /><path
         d="m 14113.4,12054.1 c -6.3,-0.5 -12,4.1 -12.8,10.4 -0.7,6.5 3.9,12.5 10.4,13.3 65.7,7.9 128.5,37.3 176.7,82.8 4.7,4.5 12.2,4.3 16.7,-0.5 4.5,-4.8 4.3,-12.3 -0.5,-16.8 -51.8,-48.9 -119.3,-80.5 -190,-89.1 l -0.5,-0.1"
         style="fill:#473b31;fill-opacity:1;fill-rule:nonzero;stroke:none"
         id="path118" /><path
         d="m 13726.9,12517.8 c -2.1,0 -4.2,0.5 -6.2,1.5 -6.8,3.4 -9.6,11.7 -6.1,18.5 57.5,114.9 188.7,97.2 190,97 7.6,-1.1 12.8,-8.1 11.7,-15.7 -1.1,-7.6 -8.1,-12.8 -15.7,-11.7 -4.5,0.7 -112.8,14.8 -161.3,-82 -2.4,-4.8 -7.3,-7.6 -12.4,-7.6"
         style="fill:#6b5845;fill-opacity:1;fill-rule:nonzero;stroke:none"
         id="path120" /><path
         d="m 14086.1,12658 c -4.1,0 -8.1,1.8 -10.8,5.2 -4.8,5.9 -3.9,14.6 2.1,19.4 1,0.8 104.9,83 212.9,13.5 6.4,-4.2 8.3,-12.7 4.2,-19.2 -4.2,-6.4 -12.7,-8.2 -19.2,-4.1 -91,58.5 -176.9,-8.9 -180.5,-11.8 -2.6,-2 -5.7,-3 -8.7,-3"
         style="fill:#6b5845;fill-opacity:1;fill-rule:nonzero;stroke:none"
         id="path122" /><path
         d="M 17196.9,7830.1 18086.6,1449 h -206.5 l -1159.8,6381.1 h 476.6"
         style="fill:#977145;fill-opacity:1;fill-rule:nonzero;stroke:none"
         id="path124" /><path
         d="m 16826.2,7247.7 -105.9,582.4 h 476.6 l 81.3,-582.4 h -452"
         style="fill:#7a5938;fill-opacity:1;fill-rule:nonzero;stroke:none"
         id="path126" /><path
         d="M 7921.16,7830.1 7031.51,1449 h 206.53 l 1159.72,6381.1 h -476.6"
         style="fill:#977145;fill-opacity:1;fill-rule:nonzero;stroke:none"
         id="path128" /><path
         d="m 8291.9,7247.7 105.85,582.4 h -476.59 l -81.22,-582.4 h 451.96"
         style="fill:#7a5938;fill-opacity:1;fill-rule:nonzero;stroke:none"
         id="path130" /><path
         d="M 15225.2,7830.1 16114.8,1449 h -206.5 l -1159.7,6381.1 h 476.6"
         style="fill:#977145;fill-opacity:1;fill-rule:nonzero;stroke:none"
         id="path132" /><path
         d="m 14854.5,7247.7 -105.9,582.4 h 476.6 l 81.2,-582.4 h -451.9"
         style="fill:#7a5938;fill-opacity:1;fill-rule:nonzero;stroke:none"
         id="path134" /><path
         d="M 17931.7,7766.3 H 5122.36 v 245.9 H 17931.7 v -245.9"
         style="fill:#825c36;fill-opacity:1;fill-rule:nonzero;stroke:none"
         id="path136" /><path
         d="M 17997.6,7953.4 H 5056.48 c -137.3,0 -263.94,74 -331.38,193.5 l -84.65,150.2 c -41.5,73.6 11.68,164.6 96.19,164.6 H 18317.4 c 84.5,0 137.7,-91 96.2,-164.6 l -84.7,-150.2 c -67.4,-119.5 -194.1,-193.5 -331.3,-193.5"
         style="fill:#977145;fill-opacity:1;fill-rule:nonzero;stroke:none"
         id="path138" /><path
         d="m 11054.6,8560.8 c -12.6,28.3 -49.8,39 -81.5,40 -631.7,21.2 -1189.12,-28.3 -1784.57,-24.3 -16.43,0.1 -33.11,0.1 -48.95,-4.2 -19.84,-5.5 -37.1,-17.6 -53.92,-29.5 -29.95,-21.1 -240.3,-138.5 -191.37,-182.3 11.52,-10.3 28.14,-12 43.56,-13.2 423.43,-32.8 1389.45,-32.1 1814.25,-27.9 132.2,1.3 127.5,0 304,237.7 0.8,1.1 -0.9,2.5 -1.5,3.7"
         style="fill:#342630;fill-opacity:1;fill-rule:nonzero;stroke:none"
         id="path140" /><path
         d="m 14068.5,8503.1 c -172,-15.7 -345.7,15.3 -517.9,1.3 -172.2,-13.9 -356.5,-87.6 -429.9,-244 -8.7,-18.6 -15.8,-38.9 -14,-59.4 7.5,-84.3 130.2,-84.9 212.2,-63.6 795.1,206.4 1635.8,25.1 2455.6,77.4 211.2,13.5 437.8,50.3 587.9,199.4 128.6,127.7 176.7,314.4 205.2,493.3 35.6,224.3 48.8,452.1 39.3,679 -2.2,53.9 -6.8,111 -38.4,154.8 -27.6,38.2 -71.9,60.7 -116.2,76.6 -59.3,21.4 -709.3,19.9 -698,-76 19.6,-165.2 24.4,-332.4 13.9,-498.4 -611.8,-120 -1073.7,-683.4 -1699.7,-740.4"
         style="fill:#81694d;fill-opacity:1;fill-rule:nonzero;stroke:none"
         id="path142" /><path
         d="m 15611.4,9447.6 c 6.3,-23.5 13.8,-48.8 33.1,-63.8 16.1,-12.6 37.6,-15.6 57.9,-17.8 322.2,-34 654.6,36.8 934.9,199.1 28,16.2 56.9,34.7 71.4,63.7 15.9,31.6 11.4,69.1 6.2,104.1 -70.3,468.3 -221.7,924.3 -445.4,1341.7 -169.2,315.7 -757.8,901.6 -879.2,273.4 -111.8,-579 72.2,-1342.4 221.1,-1900.4"
         style="fill:#edbd5a;fill-opacity:1;fill-rule:nonzero;stroke:none"
         id="path144" /><path
         d="M 12900.9,8852 H 8713.98 l -314.23,2428.2 H 12586.6 L 12900.9,8852"
         style="fill:#0b0000;fill-opacity:1;fill-rule:nonzero;stroke:none"
         id="path146" /><path
         d="m 10483.2,8012.2 h -511.57 l 267.57,1907 h 678.7 l -244.4,-1741.5 c -13.3,-94.9 -94.5,-165.5 -190.3,-165.5"
         style="fill:#7f8187;fill-opacity:1;fill-rule:nonzero;stroke:none"
         id="path148" /><path
         d="m 11067.9,8162.5 c 11,31.3 -10.4,66.5 -39.4,82.5 -29.1,16 -63.6,17.5 -96.7,18.6 -155.8,5.4 -311.6,10.7 -467.4,16.1 -58.1,2 -117.1,3.9 -173.8,-9.2 -56.7,-13.1 -111.8,-43.2 -142.7,-92.6 -10.3,-16.5 -17.9,-36.3 -13.6,-55.3 8.8,-38.2 56.3,-50.3 95.2,-55.1 128.8,-16 270.1,-51.9 399.9,-31.3 47.8,7.6 438.5,106.8 438.5,126.3"
         style="fill:#7f8187;fill-opacity:1;fill-rule:nonzero;stroke:none"
         id="path150" /><g
         id="g152"><g
           id="g154"
           clip-path="url(#clipPath158)"><path
             d="m 17237.3,9700.5 c 0.2,33.5 0.7,67.1 1.7,100.5 4.6,168.4 -6.8,410.1 80.9,574.1 55.2,103.4 209.5,91.7 249.1,-18.6 4.6,-13 8.4,-25.6 11.3,-37.1 38.7,-152.3 15.4,-326.6 -2.1,-481.7 -27.6,-244.6 -76.5,-486.5 -113.3,-729.7 -7.2,-47.4 -20,-212.5 -85.8,-218.5 -62.5,-5.7 -91.2,111.2 -97.4,154.1 -31.6,217.3 -45.8,437.3 -44.4,656.9"
             style="fill:url(#linearGradient168);fill-opacity:1;fill-rule:nonzero;stroke:none"
             id="path170" /></g></g><path
         d="m 17358.5,8925.1 h -0.6 c -6.6,0.3 -11.6,5.9 -11.3,12.5 l 70.8,1344.5 c 0.3,6.6 5.8,11.3 12.5,11.3 6.6,-0.4 11.6,-6 11.3,-12.5 l -70.7,-1344.5 c -0.4,-6.4 -5.6,-11.3 -12,-11.3"
         style="fill:#26544c;fill-opacity:1;fill-rule:nonzero;stroke:none"
         id="path172" /><path
         d="m 16819.6,9498.6 c -28.9,57.8 -58.5,118.3 -58.9,182.9 -0.5,64.6 37.6,134.5 100.9,147.9 126.4,26.7 202.1,-202.2 250.4,-284.4 62.1,-124.2 127.1,-239.4 157.6,-376.8 10.6,-47.2 63.8,-207.4 18.3,-239.8 -18.7,-13.4 -43.7,-14.4 -66.4,-10.3 -117.4,20.9 -186.3,188.6 -242,282.1 -57.8,97 -109.4,197.5 -159.9,298.4"
         style="fill:#3a8175;fill-opacity:1;fill-rule:nonzero;stroke:none"
         id="path174" /><path
         d="m 17250,8943.2 c -3.1,0 -6.1,1.9 -7.4,5 -60.4,153.5 -383.1,733.9 -386.3,739.7 -2.2,3.8 -0.8,8.7 3.1,10.8 3.9,2.1 8.6,0.8 10.8,-3.1 3.2,-5.8 326.4,-587.1 387.2,-741.5 1.7,-4.1 -0.4,-8.7 -4.4,-10.4 -1,-0.4 -2,-0.5 -3,-0.5"
         style="fill:#26544c;fill-opacity:1;fill-rule:nonzero;stroke:none"
         id="path176" /><path
         d="m 17966.2,9440.2 c 10.6,17.6 21,35.3 31.2,53.1 34.8,61 63.5,127.6 40.7,198.1 -64.7,200.1 -246.7,21.6 -313.4,-72.6 -87.6,-124 -162.2,-257.2 -222.3,-396.6 -23.9,-55.5 -132.6,-266.8 -72.3,-319.3 17.8,-15.5 43.3,-19.1 66.9,-17.2 121.5,9.6 197.5,151.7 260,239.7 72.9,102.8 144.4,206.7 209.2,314.8"
         style="fill:#3a8175;fill-opacity:1;fill-rule:nonzero;stroke:none"
         id="path178" /><path
         d="m 17471.2,8914.5 c -1.2,0 -2.5,0.3 -3.7,0.8 -3.8,2 -5.4,6.8 -3.4,10.8 77.8,151.9 467.3,714.6 471.2,720.3 2.5,3.6 7.5,4.4 11,2 3.7,-2.5 4.6,-7.5 2.1,-11.1 -3.9,-5.7 -392.8,-567.4 -470.1,-718.5 -1.4,-2.8 -4.2,-4.3 -7.1,-4.3"
         style="fill:#26544c;fill-opacity:1;fill-rule:nonzero;stroke:none"
         id="path180" /><path
         d="m 17050.3,8342.6 -75.4,641.6 h 805.1 l -50.4,-654.2 -679.3,12.6"
         style="fill:#ec7341;fill-opacity:1;fill-rule:nonzero;stroke:none"
         id="path182" /><path
         d="m 17719.4,8865.6 h -684 c -8.8,0 -15.9,7.1 -15.9,15.9 0,8.7 7.1,15.8 15.9,15.8 h 684 c 8.8,0 15.9,-7.1 15.9,-15.8 0,-8.8 -7.1,-15.9 -15.9,-15.9"
         style="fill:#f2eae1;fill-opacity:1;fill-rule:nonzero;stroke:none"
         id="path184" /><path
         d="m 5695.42,8907.9 c 185.34,-14.8 370.52,-31.7 555.97,-43.7 93.27,-6 188.7,-7.4 276.41,-48.3 33.59,-15.6 204.12,-139.1 139.63,-196.5 -104.96,-94.6 -271.06,-56.6 -399.36,2.6 -231.56,106.8 -344.65,114.7 -582.98,45.5 -448.91,-130.3 -912.77,-238 -1383.83,-273.7 -381.61,-28.9 -719.13,45.8 -1032.81,267.1 -69.96,49.3 -141.33,101.8 -184.08,176 -126.73,219.9 -63.01,451.7 64.24,654.3 58.52,93.1 116.98,222.7 236.54,203.7 136.37,-21.7 138.78,-116.6 175.6,-242.2 38.31,-130.8 204.52,-481.7 204.52,-481.7 555.23,4.5 1110.62,-10.2 1664.84,-44 88.51,-5.3 176.93,-12 265.31,-19.1"
         style="fill:#ef9d84;fill-opacity:1;fill-rule:nonzero;stroke:none"
         id="path186" /><path
         d="m 3250.12,10733.8 c 69.17,-163.2 138.14,-326.5 207.19,-489.7 87.21,-206.2 157.27,-436.3 267.51,-631.1 64.83,-116.1 -910.89,-393.6 -1015.61,-427.3 -51.77,-16.6 -294.74,1009.6 -318.26,1107.1 -62.77,260.3 -256.08,698.9 16.53,898.2 70.26,51.3 162.87,61.8 249.6,54.5 149.55,-12.6 293.79,-75.4 407.25,-173.3 112.63,-97.1 129.81,-206.4 185.79,-338.4"
         style="fill:#dd3e0e;fill-opacity:1;fill-rule:nonzero;stroke:none"
         id="path188" /><path
         d="m 3730.03,12703 c -2.47,8.5 -5.16,16.9 -8.07,25.4 -205.62,596.2 -1057.26,415 -1307.52,-35.7 -141.04,-254 -182.08,-552.4 -340.08,-798.3 -164.32,-255.8 -404.77,-470.6 -488.37,-771.9 -80.76,-291.1 14.95,-618.8 223.72,-837.2 362.79,-379.4 888.49,-345 1355.09,-218.5 270.35,73.2 497.86,227.4 562.85,511.5 61.84,270.4 -8.89,557.2 -76.85,819.3 -57.26,221 -60.49,404.4 -1.08,628.2 58.12,218.9 147.06,449.6 80.31,677.2"
         style="fill:#0b0000;fill-opacity:1;fill-rule:nonzero;stroke:none"
         id="path190" /><path
         d="m 8622,3897.9 c 80.57,-28.1 175.82,-59.6 201.86,-140.9 37.13,-115.9 -95.65,-210.3 -207.85,-257.6 -175.47,-73.9 -357.11,-141.7 -547.08,-154.9 -189.96,-13.1 -391.65,34.7 -529.37,166.2 -86.21,82.4 -141.69,190.7 -201.94,293.6 -152.43,260.1 -344.85,496.8 -568.41,699.1 -81.19,73.5 -173.26,155.8 -177.82,265.2 -5.92,142.2 137.71,241.9 270,294.6 152.93,60.9 397.09,160.8 535.99,64.2 128.54,-89.4 237.36,-375.2 335.07,-505 232.41,-308.9 517.07,-594.4 889.55,-724.5"
         style="fill:#fdaf91;fill-opacity:1;fill-rule:nonzero;stroke:none"
         id="path192" /><path
         d="m 6270.23,4122.3 c 0,0 -967.32,7.6 -1224.55,316.2 0,0 838.75,679.6 1224.55,-316.2"
         style="fill:#0f3349;fill-opacity:1;fill-rule:nonzero;stroke:none"
         id="path194" /><path
         d="m 5143.27,3720.6 c -43.67,-454 207.73,-820.7 465.33,-1170.5 20.61,-28 42.75,-57.3 74.72,-70.9 26.91,-11.5 57.3,-10.4 86.53,-9 157.95,7.1 329.7,0.9 490.96,17.2 64.74,6.6 94.08,84.5 50.97,133.3 -92.74,104.8 -188.24,216.6 -294.22,294.3 -26.99,27.7 -54.76,56.6 -67.66,93 -18,50.8 -4.04,106.7 9.05,159 81.29,324.7 125.01,658.9 130,993.7 1.45,97.5 -3.91,204.6 -69.55,276.7 -76.44,84 -204.48,89.4 -318.06,88.8 -257.9,-1.4 -341.57,42.5 -429.46,-214.3 -65.4,-191.1 -109.27,-390.2 -128.61,-591.3"
         style="fill:#fdaf91;fill-opacity:1;fill-rule:nonzero;stroke:none"
         id="path196" /><path
         d="m 6070.95,3829.4 c 10.06,110.1 16.35,220.7 18,331.3 1.45,97.5 -3.91,204.6 -69.55,276.7 -76.44,84 -204.48,89.4 -318.06,88.8 -257.9,-1.4 -341.57,42.5 -429.46,-214.3 -9.77,-28.6 -18.9,-57.3 -27.7,-86.2 102.5,-5.7 196.57,-54.5 251.68,-105.2 188.93,-134.5 375.94,-223.1 575.09,-291.1"
         style="fill:#ff7778;fill-opacity:1;fill-rule:nonzero;stroke:none"
         id="path198" /><path
         d="m 7504.08,5118.1 c 77.64,55.6 182.38,118.2 83.66,210.6 -221.46,207.3 -445.87,409.1 -654.35,629.9 -188.13,199 -352.8,420.2 -546.14,613.7 -151,151.4 -322.06,281.2 -493.88,408.5 -542.38,402 -1111.59,791.3 -1759.76,980 -648.16,188.8 -1395.67,149.4 -1936.99,-254 -49.09,-36.6 -97.08,-76.9 -128.93,-129.2 -82.26,-135 -36.43,-312.6 42.82,-449.4 146.03,-252.1 392.75,-435 661.61,-547.2 268.87,-112.2 560.39,-158.9 850.38,-186.8 340.54,-32.8 683.66,-40.8 1022.06,-91.1 187.63,-27.8 333.91,-81 461.91,-223.7 154.63,-172.4 317.94,-338.6 475.88,-508.4 334.11,-359.4 667.41,-720.2 1025.85,-1055.7 6.81,-6.4 494.17,343.7 542.17,374.5 119.14,76.4 239.95,146.8 353.71,228.3"
         style="fill:#6b8a91;fill-opacity:1;fill-rule:nonzero;stroke:none"
         id="path200" /><path
         d="m 4328.25,6276 v 5.7 H 2970.51 c -235.21,44 -467.64,121.5 -678.51,247 -18.75,11.1 -37.3,22.7 -55.66,34.7 -228.94,150.1 -425.99,368 -540.06,637.8 -53.57,126.7 -84.51,289.9 -5.9,398.5 43.98,60.8 112.64,89.8 177.98,116.2 71.1,28.7 142.67,55.9 214.65,81.7 180.18,64.5 1208.68,238.8 1393.19,285.1 0,0 598.23,-33 1349.85,-133.3 954.31,-127.4 2386.4,-333.6 2364.55,-1537.6 -1.94,-106.7 -14.94,-213.2 -36.78,-317.7 -89.63,-428.8 -318.35,-844.1 -513.1,-1233.3 -76.39,-152.7 -322.03,-647.7 -370.49,-738.5 -108.18,150.6 -224.4,229.3 -409.78,274.6 -264.54,64.6 -545.01,81.7 -814.77,41.6 43.97,299.3 190.05,617.6 293.48,904.2 59.52,164.9 121.43,329 185.7,492.2 18.67,47.3 190.49,464.6 190.49,464.6 -461.91,2.3 -923.55,-18.8 -1387.1,-23.5"
         style="fill:#86a7b0;fill-opacity:1;fill-rule:nonzero;stroke:none"
         id="path202" /><path
         d="m 2692.53,11447.2 c 170.96,-95.3 373.97,-131.9 567.46,-102.3 -35.66,200 -16.01,409.6 56.2,599.5 6.7,17.6 13.83,37.5 6.04,54.7 -7.36,16.2 -25.51,24.1 -42.3,30 -129.09,45.6 -307.69,89.9 -392.11,-39.2 -23.5,-35.9 -179.46,-551.5 -195.29,-542.7"
         style="fill:#fdaf91;fill-opacity:1;fill-rule:nonzero;stroke:none"
         id="path204" /><path
         d="m 3267.48,11776.1 c 12.02,57.2 27.92,113.6 48.71,168.3 6.7,17.6 13.83,37.5 6.04,54.7 -7.36,16.2 -25.51,24.1 -42.3,30 -129.09,45.6 -307.69,89.9 -392.1,-39.2 -1.73,-2.6 -4.25,-8.1 -7.31,-15.6 89.26,-117.9 220.95,-195.8 386.96,-198.2"
         style="fill:#ff7778;fill-opacity:1;fill-rule:nonzero;stroke:none"
         id="path206" /><path
         d="m 2677.79,12176.6 c 72.01,-137.7 319.61,-154.1 264.49,77.9 -37.38,157.3 -264.62,213.9 -282.85,17.8 -3.35,-36 4.02,-68.3 18.36,-95.7"
         style="fill:#fdaf91;fill-opacity:1;fill-rule:nonzero;stroke:none"
         id="path208" /><path
         d="m 2228.87,10788.3 c -133.14,-606.1 -233.19,-1224 -350.36,-1833.7 -90.63,-471.6 -188.33,-933.8 -278.12,-1402.1 -6.27,-32.7 -12.15,-68.4 3.24,-97.9 27.01,-51.8 99.23,-53.9 157.39,-48.1 669.34,66.5 1243.49,260.6 1825.46,599.9 40.6,23.7 83.8,51.2 99.52,95.5 15.31,43.2 0.33,90.6 -14.54,133.9 -201.15,585.9 -394.34,1204.8 -287.87,1815.1 24.36,139.6 64.26,276.8 77.51,417.9 19.97,213 -35.87,411.9 -110.74,608.4 -51.35,134.7 -122.63,228.4 -66.02,371.8 15.48,39.2 51.62,137.9 15.87,172.3 -19.59,18.8 -47.5,25.6 -74.01,31.6 -162.36,36.9 -324.71,73.8 -487.07,110.7 -48.06,-126.3 -118.17,-260.9 -210.9,-360.7 -168.53,-181.3 -250.47,-392 -299.36,-614.6"
         style="fill:#ea5642;fill-opacity:1;fill-rule:nonzero;stroke:none"
         id="path210" /><path
         d="m 3393.03,10242 c 34.53,135.8 88.84,292.8 74.21,430.5 -14.29,134.4 -68.95,278.9 -116.91,404.8 -31.9,83.7 -100.98,177.7 -97.59,271.3 -1.23,-34 -127.76,-105.6 -159.05,-119.3 -78.41,-34.6 -175.07,-42.9 -256.82,-73.4 -78.62,-29.4 -156.59,-65.7 -217.42,-123.5 -60.83,-57.8 -102.71,-140.5 -94.44,-224 5.16,-52.1 28.88,-100.4 54.9,-145.7 156.21,-272.5 442.77,-495.9 756.31,-477.3 13.96,0.8 29.06,2.6 39.15,12.3 8.44,8.1 11.64,20.1 14.44,31.4 1.05,4.3 2.12,8.6 3.22,12.9"
         style="fill:#dd3e0e;fill-opacity:1;fill-rule:nonzero;stroke:none"
         id="path212" /><path
         d="M 7697.44,8470.1 H 5726.69 c -71.83,0 -130.05,58.2 -130.05,130 v 78.9 h 2100.8 v -208.9"
         style="fill:#1f231f;fill-opacity:1;fill-rule:nonzero;stroke:none"
         id="path214" /><path
         d="m 7697.44,8470.1 h -203.12 l 894.95,1984.8 h 203.11 L 7697.44,8470.1"
         style="fill:#1f231f;fill-opacity:1;fill-rule:nonzero;stroke:none"
         id="path216" /><path
         d="m 3025.15,11960.8 c 48.41,-25.8 101.29,-43.2 154.68,-55.3 27.4,-6.2 56.56,-7.5 83.49,-14.7 26.64,-7.2 47.22,-12.8 75.67,-10.5 84.97,7.1 167.67,39.6 234.72,92.3 40.99,32.2 76.05,71.9 103.27,116.3 13.69,22.4 24.64,45.8 34.73,70 7.67,18.3 4.03,16.1 21,17.4 13.96,1.1 24.62,-5.1 37.79,4.3 37.54,27 12.72,90.5 5.05,124.5 -11.65,51.7 -11.99,105.1 -10.36,157.8 3.25,105.1 25.98,233.4 -36.25,324.8 -58.02,85.2 -129.2,139.8 -229.7,168.4 -347.09,98.9 -606.51,-75.9 -640.81,-434.9 -10.93,-114.4 -17.7,-231.6 11.42,-342.7 29.8,-113.8 84,-179.7 155.3,-217.7"
         style="fill:#fdaf91;fill-opacity:1;fill-rule:nonzero;stroke:none"
         id="path218" /><path
         d="m 3697.91,12396.3 c -0.22,23.3 -19.33,42 -42.67,41.8 h -0.03 c -23.38,-0.2 -42.17,-19.3 -41.96,-42.7 0.2,-23.4 19.32,-42.2 42.7,-42 23.38,0.3 42.17,19.4 41.96,42.8 v 0.1"
         style="fill:#0b0000;fill-opacity:1;fill-rule:nonzero;stroke:none"
         id="path220" /><path
         d="m 2443.96,12750.7 c 0.84,1.7 1.7,3.4 2.56,5.1 66.88,132.6 190.82,230.3 327.62,288 136.81,57.6 286.4,78.4 434.65,86.1 142.98,7.5 272.52,-8.6 390.82,-92.3 54.89,-38.8 105.65,-79.8 136.07,-141.9 9.92,-20.3 30.15,-176.4 29.95,-176.3 -51.86,27.1 -114.62,22.3 -171.32,8 -202.96,-51.3 -358.31,-194.1 -544.61,-284.6 -46.88,-22.7 -91.79,-39.1 -141.68,-50.2 -38.04,-8.5 -87.14,-20.8 -97.71,-64.7 -9.47,-39.3 21.61,-75.5 48.03,-106.1 96.49,-112 78.75,-216 79.25,-357.3 0.17,-47.7 0.25,-96 -12.3,-141.9 -63.78,-233.6 -379.18,-290.1 -580.79,-247.3 -26.72,5.6 -53.67,13.1 -76.21,28.5 -30.43,20.9 -50.04,54.3 -63.3,88.7 -43.73,113.4 -26.83,241.5 8.94,357.7 35.78,116.2 89.55,226.6 120.22,344.2 39.59,151.9 40.79,315.6 109.81,456.3"
         style="fill:#0b0000;fill-opacity:1;fill-rule:nonzero;stroke:none"
         id="path222" /><path
         d="m 2711.95,12186.2 c 70.5,-134.9 312.88,-150.9 258.92,76.2 -36.59,154 -259.04,209.4 -276.89,17.5 -3.28,-35.3 3.94,-66.9 17.97,-93.7"
         style="fill:#fdaf91;fill-opacity:1;fill-rule:nonzero;stroke:none"
         id="path224" /><path
         d="m 3589.68,12483.9 c -3.71,-0.2 -7.48,1.2 -10.22,4.1 -4.96,5.4 -4.67,13.8 0.67,18.7 54.01,50.4 114.07,25.7 138.29,5.6 5.6,-4.6 6.36,-12.9 1.75,-18.5 -4.64,-5.6 -12.93,-6.5 -18.58,-1.9 -2.13,1.8 -53.07,42.3 -103.47,-4.5 -2.38,-2.2 -5.4,-3.4 -8.44,-3.5"
         style="fill:#0b0000;fill-opacity:1;fill-rule:nonzero;stroke:none"
         id="path226" /><path
         d="m 3392.02,5772.2 h 168.36 V 2487.6 h -168.36 v 3284.6"
         style="fill:#e3b272;fill-opacity:1;fill-rule:nonzero;stroke:none"
         id="path228" /><path
         d="M 3986.22,2606.5 H 2966.18 c -114.86,0 -207.97,-93.1 -207.97,-208 H 4194.2 c 0,114.9 -93.12,208 -207.98,208"
         style="fill:#e3b272;fill-opacity:1;fill-rule:nonzero;stroke:none"
         id="path230" /><path
         d="M 4912.19,5828.9 H 2040.21 c -142.21,0 -257.49,115.3 -257.49,257.5 0,142.2 115.28,257.5 257.49,257.5 h 2871.98 c 142.21,0 257.49,-115.3 257.49,-257.5 0,-142.2 -115.28,-257.5 -257.49,-257.5"
         style="fill:#eebf5f;fill-opacity:1;fill-rule:nonzero;stroke:none"
         id="path232" /><path
         d="M 4417.02,5828.9 H 2535.38 v -49.3 c 0,-35.4 28.7,-64.1 64.11,-64.1 h 1753.42 c 35.41,0 64.11,28.7 64.11,64.1 v 49.3"
         style="fill:#c28958;fill-opacity:1;fill-rule:nonzero;stroke:none"
         id="path234" /><path
         d="m 2681.08,10790.8 c -46.04,-167.4 -24.45,-368.7 -19.2,-524.2 11.65,-345.8 51.79,-690.6 119.72,-1029.9 45.84,-228.9 141.59,-396.6 350.73,-509.6 500.57,-270.4 1183.53,-129.3 1694.72,24.4 0,0 316.04,138.3 1019.82,-115.9 0,0 251.7,-89.5 53.13,188.2 -92.26,129 -311.13,187.7 -451.28,238.4 -593.08,214.3 -1209.89,335.6 -1837.82,385.3 -9.71,274.9 -19.63,551.4 -77.34,820.2 -57.89,269.7 -313.09,1094.5 -726.54,735 -64.72,-56.3 -103.42,-130 -125.94,-211.9"
         style="fill:#fdaf91;fill-opacity:1;fill-rule:nonzero;stroke:none"
         id="path236" /><path
         d="m 3746.55,9620.9 c -11.88,199.8 -32.54,398.7 -74.82,594.1 -73.37,339.4 -402.28,1376.6 -959.5,917 -87.2,-71.9 -139.98,-165.6 -171.22,-269.2 -63.84,-211.9 -37.93,-465.6 -33.15,-661.9 6.5,-268.6 29.21,-536.3 64.39,-802.4 l 1174.3,222.4"
         style="fill:#ea5642;fill-opacity:1;fill-rule:nonzero;stroke:none"
         id="path238" /><path
         d="M 5949.41,7830.1 5059.76,1449 h 206.53 l 1159.72,6381.1 h -476.6"
         style="fill:#977145;fill-opacity:1;fill-rule:nonzero;stroke:none"
         id="path240" /><path
         d="m 6320.15,7247.7 105.86,582.4 h -476.59 l -81.23,-582.4 h 451.96"
         style="fill:#7a5938;fill-opacity:1;fill-rule:nonzero;stroke:none"
         id="path242" /><path
         d="m 12248.8,12481.6 c -94.9,-355.9 -460.3,-567.5 -816.1,-472.6 -355.9,94.8 -567.5,460.2 -472.7,816.1 94.8,355.8 460.2,567.5 816.1,472.6 355.9,-94.8 567.5,-460.2 472.7,-816.1"
         style="fill:#86a7b0;fill-opacity:1;fill-rule:nonzero;stroke:none"
         id="path244" /><path
         d="m 11400.8,12428.1 c -13.8,3.7 -26.3,12.6 -34.2,25.9 l -179.9,300.5 c -16.2,27 -7.4,62.1 19.6,78.2 27.1,16.2 62.1,7.4 78.3,-19.6 l 151.7,-253.5 586.2,320.9 c 27.6,15.1 62.3,4.9 77.4,-22.7 15.1,-27.6 5,-62.3 -22.6,-77.4 l -634.4,-347.2 c -13.4,-7.3 -28.4,-8.7 -42.1,-5.1"
         style="fill:#fffdea;fill-opacity:1;fill-rule:nonzero;stroke:none"
         id="path246" /><g
         id="g248"><g
           id="g250"
           clip-path="url(#clipPath254)"><path
             d="m 11604.8,11986.3 c -56.8,0 -114.6,7.3 -172.1,22.7 -298.2,79.4 -495.1,348.8 -495.4,643.4 0,57 7.3,115 22.7,172.7 79.5,298.3 349.2,495.3 644,495.3 56.8,0 114.6,-7.3 172.1,-22.7 298.2,-79.4 495.1,-348.8 495.3,-643.5 0,-56.9 -7.3,-114.9 -22.6,-172.6 -79.6,-298.3 -349.2,-495.3 -644,-495.3 m -369.2,854.5 c -10,0 -20.1,-2.6 -29.3,-8.1 -27,-16.1 -35.8,-51.2 -19.6,-78.2 l 179.9,-300.5 c 7.9,-13.3 20.4,-22.2 34.2,-25.9 4.8,-1.2 9.8,-1.9 14.7,-1.9 9.3,0 18.7,2.3 27.4,7 l 634.4,347.2 c 27.6,15.1 37.7,49.8 22.6,77.4 -10.4,19 -29.9,29.7 -50.1,29.7 -9.2,0 -18.6,-2.3 -27.3,-7 l -586.2,-320.9 -151.7,253.5 c -10.7,17.8 -29.6,27.7 -49,27.7"
             style="fill:url(#linearGradient260);fill-opacity:1;fill-rule:nonzero;stroke:none"
             id="path262" /></g></g><g
         id="g264"><g
           id="g266"
           clip-path="url(#clipPath270)"><path
             d="m 11415.5,12426.2 c -4.9,0 -9.9,0.7 -14.7,1.9 -13.8,3.7 -26.3,12.6 -34.2,25.9 l -179.9,300.5 c -16.2,27 -7.4,62.1 19.6,78.2 9.2,5.5 19.3,8.1 29.3,8.1 19.4,0 38.3,-9.9 49,-27.7 l 151.7,-253.5 586.2,320.9 c 8.7,4.7 18.1,7 27.3,7 20.2,0 39.7,-10.7 50.1,-29.7 15.1,-27.6 5,-62.3 -22.6,-77.4 l -634.4,-347.2 c -8.7,-4.7 -18.1,-7 -27.4,-7"
             style="fill:url(#linearGradient276);fill-opacity:1;fill-rule:nonzero;stroke:none"
             id="path278" /></g></g></g></g></svg>
