{"accessors" : [{"bufferView" : 0, "byteOffset" : 0, "componentType" : 5123, "count" : 228, "type" : "SCALAR", "max" : [177], "min" : [0]}, {"bufferView" : 1, "byteOffset" : 0, "componentType" : 5126, "count" : 178, "type" : "VEC3", "max" : [-1.1764904260635376, 0.9157029986381531, -0.2987179160118103], "min" : [-2.176490545272827, 0.8957363963127136, -0.31868451833724976], "name" : "POSITION"}, {"bufferView" : 1, "byteOffset" : 12, "componentType" : 5126, "count" : 178, "type" : "VEC3", "max" : [1.0000044107437134, 0.9983347058296204, 0.9983347058296204], "min" : [-1.0000044107437134, -0.9983347058296204, -0.9983347058296204], "name" : "NORMAL"}, {"bufferView" : 1, "byteOffset" : 24, "componentType" : 5126, "count" : 178, "type" : "VEC2", "max" : [0.6870478391647339, -0], "min" : [-0.7785801887512207, -39.370079040527344], "name" : "TEXCOORD_0"}], "asset" : {"generator" : "Aspose.3D 22.1", "version" : "2.0"}, "buffers" : [{"uri" : "data:application/octet-stream;base64,", "byteLength" : 7760}], "bufferViews" : [{"buffer" : 0, "byteOffset" : 0, "byteLength" : 456, "target" : 34963}, {"buffer" : 0, "byteOffset" : 460, "byteLength" : 7296, "byteStride" : 32, "target" : 34962}], "materials" : [{"name" : "", "pbrMetallicRoughness" : {"baseColorFactor" : [0.6666666666666671, 0.6666666666666671, 0.6666666666666671, 1], "metallicFactor" : 0, "roughnessFactor" : 0}, "emissiveFactor" : [0, 0, 0], "alphaMode" : "OPAQUE", "doubleSided" : false}], "meshes" : [{"primitives" : [{"attributes" : {"POSITION" : 1, "NORMAL" : 2, "TEXCOORD_0" : 3}, "indices" : 0, "material" : 0, "mode" : 4}], "name" : ""}], "nodes" : [{"mesh" : 0, "name" : "Mesh1"}, {"children" : [0], "name" : "Group1"}, {"children" : [1], "name" : "Model"}], "scene" : 0, "scenes" : [{"nodes" : [2]}]}