{"accessors" : [{"bufferView" : 0, "byteOffset" : 0, "componentType" : 5123, "count" : 228, "type" : "SCALAR", "max" : [177], "min" : [0]}, {"bufferView" : 1, "byteOffset" : 0, "componentType" : 5126, "count" : 178, "type" : "VEC3", "max" : [-2.559999942779541, 0.23369115591049194, 0.009999999776482582], "min" : [-2.5799999237060547, 0.21369116008281708, -7.387994160673247E-14], "name" : "POSITION"}, {"bufferView" : 1, "byteOffset" : 12, "componentType" : 5126, "count" : 178, "type" : "VEC3", "max" : [0.991449236869812, 0.991449236869812, 1.0000044107437134], "min" : [-0.991449236869812, -0.991449236869812, -1.0000044107437134], "name" : "NORMAL"}, {"bufferView" : 1, "byteOffset" : 24, "componentType" : 5126, "count" : 178, "type" : "VEC2", "max" : [0.787401556968689, 0.3903326094150543], "min" : [-0.787401556968689, -0.787401556968689], "name" : "TEXCOORD_0"}, {"bufferView" : 0, "byteOffset" : 456, "componentType" : 5123, "count" : 132, "type" : "SCALAR", "max" : [113], "min" : [0]}, {"bufferView" : 2, "byteOffset" : 0, "componentType" : 5126, "count" : 114, "type" : "VEC3", "max" : [-2.069999933242798, 0.27000001072883606, -0], "min" : [-3.069999933242798, 0, -0.5299999713897705], "name" : "POSITION"}, {"bufferView" : 2, "byteOffset" : 12, "componentType" : 5126, "count" : 114, "type" : "VEC3", "max" : [1.0000044107437134, 1.0000044107437134, 1.0000044107437134], "min" : [-1.0000044107437134, -1.0000044107437134, -1.0000044107437134], "name" : "NORMAL"}, {"bufferView" : 2, "byteOffset" : 24, "componentType" : 5126, "count" : 114, "type" : "VEC2", "max" : [39.370079040527344, -0], "min" : [-39.370079040527344, -39.370079040527344], "name" : "TEXCOORD_0"}], "asset" : {"generator" : "Aspose.3D 22.1", "version" : "2.0"}, "buffers" : [{"uri" : "data:application/octet-stream;base64,", "byteLength" : 12252}], "bufferViews" : [{"buffer" : 0, "byteOffset" : 0, "byteLength" : 720, "target" : 34963}, {"buffer" : 0, "byteOffset" : 724, "byteLength" : 7296, "byteStride" : 32, "target" : 34962}, {"buffer" : 0, "byteOffset" : 8024, "byteLength" : 4224, "byteStride" : 32, "target" : 34962}], "materials" : [{"name" : "", "pbrMetallicRoughness" : {"baseColorFactor" : [0.6666666666666671, 0.6666666666666671, 0.6666666666666671, 1], "metallicFactor" : 0, "roughnessFactor" : 0}, "emissiveFactor" : [0, 0, 0], "alphaMode" : "OPAQUE", "doubleSided" : false}, {"name" : "", "pbrMetallicRoughness" : {"baseColorFactor" : [1, 1, 1, 1], "metallicFactor" : 0, "roughnessFactor" : 0}, "emissiveFactor" : [0, 0, 0], "alphaMode" : "OPAQUE", "doubleSided" : false}], "meshes" : [{"primitives" : [{"attributes" : {"POSITION" : 1, "NORMAL" : 2, "TEXCOORD_0" : 3}, "indices" : 0, "material" : 0, "mode" : 4}], "name" : ""}, {"primitives" : [{"attributes" : {"POSITION" : 5, "NORMAL" : 6, "TEXCOORD_0" : 7}, "indices" : 4, "material" : 1, "mode" : 4}], "name" : ""}], "nodes" : [{"mesh" : 0, "name" : "Mesh1"}, {"children" : [0], "name" : "Group2"}, {"mesh" : 1, "name" : "Mesh2"}, {"children" : [1, 2], "name" : "Group1"}, {"children" : [3], "name" : "Model"}], "scene" : 0, "scenes" : [{"nodes" : [4]}]}