{"accessors" : [{"bufferView" : 0, "byteOffset" : 0, "componentType" : 5123, "count" : 510, "type" : "SCALAR", "max" : [433], "min" : [0]}, {"bufferView" : 1, "byteOffset" : 0, "componentType" : 5126, "count" : 434, "type" : "VEC3", "max" : [0, 0.75, -0], "min" : [-0.5, 0, -0.550000011920929], "name" : "POSITION"}, {"bufferView" : 1, "byteOffset" : 12, "componentType" : 5126, "count" : 434, "type" : "VEC3", "max" : [1.0000044107437134, 1.0000044107437134, 1.0000044107437134], "min" : [-1.0000044107437134, -1.0000044107437134, -1.0000044107437134], "name" : "NORMAL"}, {"bufferView" : 1, "byteOffset" : 24, "componentType" : 5126, "count" : 434, "type" : "VEC2", "max" : [21.65354347229004, -0], "min" : [-21.65354347229004, -29.527559280395508], "name" : "TEXCOORD_0"}, {"bufferView" : 0, "byteOffset" : 1020, "componentType" : 5123, "count" : 558, "type" : "SCALAR", "max" : [446], "min" : [0]}, {"bufferView" : 2, "byteOffset" : 0, "componentType" : 5126, "count" : 447, "type" : "VEC3", "max" : [-0.24076077342033386, 0.7060765624046326, 0.009999999776482582], "min" : [-0.2607607841491699, 0.2160765379667282, -0], "name" : "POSITION"}, {"bufferView" : 2, "byteOffset" : 12, "componentType" : 5126, "count" : 447, "type" : "VEC3", "max" : [1.0000044107437134, 1.0000044107437134, 1.0000044107437134], "min" : [-1.0000044107437134, -1.0000044107437134, -0], "name" : "NORMAL"}, {"bufferView" : 2, "byteOffset" : 24, "componentType" : 5126, "count" : 447, "type" : "VEC2", "max" : [0.3937007784843445, 8.677631378173828], "min" : [-10.266172409057617, -29.14795684814453], "name" : "TEXCOORD_0"}], "asset" : {"generator" : "Aspose.3D 22.1", "version" : "2.0"}, "buffers" : [{"uri" : "data:application/octet-stream;base64,", "byteLength" : 36324}], "bufferViews" : [{"buffer" : 0, "byteOffset" : 0, "byteLength" : 2136, "target" : 34963}, {"buffer" : 0, "byteOffset" : 2140, "byteLength" : 16320, "byteStride" : 32, "target" : 34962}, {"buffer" : 0, "byteOffset" : 18464, "byteLength" : 17856, "byteStride" : 32, "target" : 34962}], "materials" : [{"name" : "", "pbrMetallicRoughness" : {"baseColorFactor" : [1, 1, 1, 1], "metallicFactor" : 0, "roughnessFactor" : 0}, "emissiveFactor" : [0, 0, 0], "alphaMode" : "OPAQUE", "doubleSided" : false}, {"name" : "", "pbrMetallicRoughness" : {"baseColorFactor" : [0.6666666666666671, 0.6666666666666671, 0.6666666666666671, 1], "metallicFactor" : 0, "roughnessFactor" : 0}, "emissiveFactor" : [0, 0, 0], "alphaMode" : "OPAQUE", "doubleSided" : false}], "meshes" : [{"primitives" : [{"attributes" : {"POSITION" : 1, "NORMAL" : 2, "TEXCOORD_0" : 3}, "indices" : 0, "material" : 0, "mode" : 4}, {"attributes" : {"POSITION" : 5, "NORMAL" : 6, "TEXCOORD_0" : 7}, "indices" : 4, "material" : 1, "mode" : 4}], "name" : ""}], "nodes" : [{"mesh" : 0, "name" : "Mesh1"}, {"children" : [0], "name" : "Model"}], "scene" : 0, "scenes" : [{"nodes" : [1]}]}